<mxfile host="65bd71144e">
    <diagram id="C5RBs43oDa-KdzZeNtuy" name="Page-1">
        <mxGraphModel dx="689" dy="479" grid="1" gridSize="10" guides="1" tooltips="1" connect="1" arrows="1" fold="1" page="1" pageScale="1" pageWidth="827" pageHeight="1169" math="0" shadow="0">
            <root>
                <mxCell id="WIyWlLk6GJQsqaUBKTNV-0"/>
                <mxCell id="WIyWlLk6GJQsqaUBKTNV-1" parent="WIyWlLk6GJQsqaUBKTNV-0"/>
                <mxCell id="lhm_JTMbu5rhK9ElhsDd-4" style="edgeStyle=orthogonalEdgeStyle;rounded=0;orthogonalLoop=1;jettySize=auto;html=1;exitX=0.5;exitY=1;exitDx=0;exitDy=0;entryX=0.5;entryY=0;entryDx=0;entryDy=0;" parent="WIyWlLk6GJQsqaUBKTNV-1" source="WIyWlLk6GJQsqaUBKTNV-3" target="WIyWlLk6GJQsqaUBKTNV-6" edge="1">
                    <mxGeometry relative="1" as="geometry"/>
                </mxCell>
                <mxCell id="lhm_JTMbu5rhK9ElhsDd-7" style="edgeStyle=orthogonalEdgeStyle;rounded=0;orthogonalLoop=1;jettySize=auto;html=1;exitX=0.5;exitY=1;exitDx=0;exitDy=0;entryX=0.5;entryY=0;entryDx=0;entryDy=0;" parent="WIyWlLk6GJQsqaUBKTNV-1" source="WIyWlLk6GJQsqaUBKTNV-3" target="lhm_JTMbu5rhK9ElhsDd-8" edge="1">
                    <mxGeometry relative="1" as="geometry">
                        <mxPoint x="330" y="110" as="targetPoint"/>
                    </mxGeometry>
                </mxCell>
                <mxCell id="lhm_JTMbu5rhK9ElhsDd-12" style="edgeStyle=orthogonalEdgeStyle;rounded=0;orthogonalLoop=1;jettySize=auto;html=1;exitX=0.5;exitY=1;exitDx=0;exitDy=0;entryX=0.5;entryY=0;entryDx=0;entryDy=0;" parent="WIyWlLk6GJQsqaUBKTNV-1" source="WIyWlLk6GJQsqaUBKTNV-3" target="lhm_JTMbu5rhK9ElhsDd-13" edge="1">
                    <mxGeometry relative="1" as="geometry">
                        <mxPoint x="530" y="110" as="targetPoint"/>
                    </mxGeometry>
                </mxCell>
                <mxCell id="WIyWlLk6GJQsqaUBKTNV-3" value="Usuario" style="rounded=1;whiteSpace=wrap;html=1;fontSize=12;glass=0;strokeWidth=1;shadow=0;" parent="WIyWlLk6GJQsqaUBKTNV-1" vertex="1">
                    <mxGeometry x="780" y="50" width="120" height="40" as="geometry"/>
                </mxCell>
                <mxCell id="lhm_JTMbu5rhK9ElhsDd-3" style="edgeStyle=orthogonalEdgeStyle;rounded=0;orthogonalLoop=1;jettySize=auto;html=1;exitX=0.5;exitY=1;exitDx=0;exitDy=0;entryX=0.5;entryY=0;entryDx=0;entryDy=0;" parent="WIyWlLk6GJQsqaUBKTNV-1" source="WIyWlLk6GJQsqaUBKTNV-6" target="WIyWlLk6GJQsqaUBKTNV-7" edge="1">
                    <mxGeometry relative="1" as="geometry"/>
                </mxCell>
                <mxCell id="WIyWlLk6GJQsqaUBKTNV-6" value="Consulta" style="rhombus;whiteSpace=wrap;html=1;shadow=0;fontFamily=Helvetica;fontSize=12;align=center;strokeWidth=1;spacing=6;spacingTop=-4;" parent="WIyWlLk6GJQsqaUBKTNV-1" vertex="1">
                    <mxGeometry x="340" y="130" width="80" height="40" as="geometry"/>
                </mxCell>
                <mxCell id="lhm_JTMbu5rhK9ElhsDd-2" style="edgeStyle=orthogonalEdgeStyle;rounded=0;orthogonalLoop=1;jettySize=auto;html=1;exitX=0.5;exitY=1;exitDx=0;exitDy=0;entryX=0.5;entryY=0;entryDx=0;entryDy=0;" parent="WIyWlLk6GJQsqaUBKTNV-1" source="WIyWlLk6GJQsqaUBKTNV-7" target="WIyWlLk6GJQsqaUBKTNV-10" edge="1">
                    <mxGeometry relative="1" as="geometry"/>
                </mxCell>
                <mxCell id="lhm_JTMbu5rhK9ElhsDd-22" style="edgeStyle=orthogonalEdgeStyle;rounded=0;orthogonalLoop=1;jettySize=auto;html=1;exitX=0.5;exitY=1;exitDx=0;exitDy=0;" parent="WIyWlLk6GJQsqaUBKTNV-1" source="WIyWlLk6GJQsqaUBKTNV-7" target="lhm_JTMbu5rhK9ElhsDd-23" edge="1">
                    <mxGeometry relative="1" as="geometry">
                        <mxPoint x="170" y="270" as="targetPoint"/>
                    </mxGeometry>
                </mxCell>
                <mxCell id="lhm_JTMbu5rhK9ElhsDd-34" style="edgeStyle=orthogonalEdgeStyle;rounded=0;orthogonalLoop=1;jettySize=auto;html=1;exitX=0.5;exitY=1;exitDx=0;exitDy=0;entryX=0.5;entryY=0;entryDx=0;entryDy=0;" parent="WIyWlLk6GJQsqaUBKTNV-1" source="WIyWlLk6GJQsqaUBKTNV-7" target="lhm_JTMbu5rhK9ElhsDd-35" edge="1">
                    <mxGeometry relative="1" as="geometry">
                        <mxPoint x="290" y="270" as="targetPoint"/>
                    </mxGeometry>
                </mxCell>
                <mxCell id="WIyWlLk6GJQsqaUBKTNV-7" value="Tabela de produtos" style="rounded=1;whiteSpace=wrap;html=1;fontSize=12;glass=0;strokeWidth=1;shadow=0;" parent="WIyWlLk6GJQsqaUBKTNV-1" vertex="1">
                    <mxGeometry x="320" y="220" width="120" height="40" as="geometry"/>
                </mxCell>
                <mxCell id="lhm_JTMbu5rhK9ElhsDd-5" style="edgeStyle=orthogonalEdgeStyle;rounded=0;orthogonalLoop=1;jettySize=auto;html=1;exitX=0.5;exitY=1;exitDx=0;exitDy=0;entryX=0.5;entryY=0;entryDx=0;entryDy=0;" parent="WIyWlLk6GJQsqaUBKTNV-1" source="WIyWlLk6GJQsqaUBKTNV-10" target="WIyWlLk6GJQsqaUBKTNV-11" edge="1">
                    <mxGeometry relative="1" as="geometry"/>
                </mxCell>
                <mxCell id="WIyWlLk6GJQsqaUBKTNV-10" value="Selecionar" style="rhombus;whiteSpace=wrap;html=1;shadow=0;fontFamily=Helvetica;fontSize=12;align=center;strokeWidth=1;spacing=6;spacingTop=-4;" parent="WIyWlLk6GJQsqaUBKTNV-1" vertex="1">
                    <mxGeometry x="170" y="300" width="70" height="50" as="geometry"/>
                </mxCell>
                <mxCell id="WIyWlLk6GJQsqaUBKTNV-11" value="Produto" style="rounded=1;whiteSpace=wrap;html=1;fontSize=12;glass=0;strokeWidth=1;shadow=0;" parent="WIyWlLk6GJQsqaUBKTNV-1" vertex="1">
                    <mxGeometry x="145" y="400" width="120" height="40" as="geometry"/>
                </mxCell>
                <mxCell id="lhm_JTMbu5rhK9ElhsDd-9" style="edgeStyle=orthogonalEdgeStyle;rounded=0;orthogonalLoop=1;jettySize=auto;html=1;exitX=0.5;exitY=1;exitDx=0;exitDy=0;entryX=0.5;entryY=0;entryDx=0;entryDy=0;" parent="WIyWlLk6GJQsqaUBKTNV-1" source="lhm_JTMbu5rhK9ElhsDd-8" target="lhm_JTMbu5rhK9ElhsDd-10" edge="1">
                    <mxGeometry relative="1" as="geometry">
                        <mxPoint x="360" y="179" as="targetPoint"/>
                    </mxGeometry>
                </mxCell>
                <mxCell id="lhm_JTMbu5rhK9ElhsDd-8" value="Inserir" style="rhombus;whiteSpace=wrap;html=1;" parent="WIyWlLk6GJQsqaUBKTNV-1" vertex="1">
                    <mxGeometry x="800" y="170" width="80" height="40" as="geometry"/>
                </mxCell>
                <mxCell id="lhm_JTMbu5rhK9ElhsDd-10" value="Upload CSV&lt;br&gt;+ uploadFile ()&lt;br&gt;+ displayColumns()" style="rounded=1;whiteSpace=wrap;html=1;" parent="WIyWlLk6GJQsqaUBKTNV-1" vertex="1">
                    <mxGeometry x="775" y="270" width="130" height="70" as="geometry"/>
                </mxCell>
                <mxCell id="lhm_JTMbu5rhK9ElhsDd-14" style="edgeStyle=orthogonalEdgeStyle;rounded=0;orthogonalLoop=1;jettySize=auto;html=1;exitX=0.5;exitY=1;exitDx=0;exitDy=0;entryX=0.409;entryY=0.025;entryDx=0;entryDy=0;entryPerimeter=0;" parent="WIyWlLk6GJQsqaUBKTNV-1" source="lhm_JTMbu5rhK9ElhsDd-13" target="lhm_JTMbu5rhK9ElhsDd-15" edge="1">
                    <mxGeometry relative="1" as="geometry">
                        <mxPoint x="530" y="180" as="targetPoint"/>
                    </mxGeometry>
                </mxCell>
                <mxCell id="lhm_JTMbu5rhK9ElhsDd-13" value="Atualizar" style="rhombus;whiteSpace=wrap;html=1;" parent="WIyWlLk6GJQsqaUBKTNV-1" vertex="1">
                    <mxGeometry x="1110" y="130" width="80" height="40" as="geometry"/>
                </mxCell>
                <mxCell id="lhm_JTMbu5rhK9ElhsDd-15" value="Produtos (CSV)&amp;nbsp;" style="rounded=1;whiteSpace=wrap;html=1;" parent="WIyWlLk6GJQsqaUBKTNV-1" vertex="1">
                    <mxGeometry x="1110" y="220" width="110" height="40" as="geometry"/>
                </mxCell>
                <mxCell id="lhm_JTMbu5rhK9ElhsDd-31" style="edgeStyle=orthogonalEdgeStyle;rounded=0;orthogonalLoop=1;jettySize=auto;html=1;exitX=0.5;exitY=1;exitDx=0;exitDy=0;entryX=1;entryY=0.5;entryDx=0;entryDy=0;" parent="WIyWlLk6GJQsqaUBKTNV-1" source="lhm_JTMbu5rhK9ElhsDd-17" target="lhm_JTMbu5rhK9ElhsDd-28" edge="1">
                    <mxGeometry relative="1" as="geometry">
                        <mxPoint x="200" y="410" as="targetPoint"/>
                    </mxGeometry>
                </mxCell>
                <mxCell id="lhm_JTMbu5rhK9ElhsDd-17" value="KuantoKusta" style="rounded=1;whiteSpace=wrap;html=1;" parent="WIyWlLk6GJQsqaUBKTNV-1" vertex="1">
                    <mxGeometry x="320" y="420" width="100" height="40" as="geometry"/>
                </mxCell>
                <mxCell id="lhm_JTMbu5rhK9ElhsDd-25" style="edgeStyle=orthogonalEdgeStyle;rounded=0;orthogonalLoop=1;jettySize=auto;html=1;exitX=0.5;exitY=1;exitDx=0;exitDy=0;entryX=0.5;entryY=0;entryDx=0;entryDy=0;" parent="WIyWlLk6GJQsqaUBKTNV-1" source="lhm_JTMbu5rhK9ElhsDd-23" edge="1" target="lhm_JTMbu5rhK9ElhsDd-17">
                    <mxGeometry relative="1" as="geometry">
                        <mxPoint x="160" y="349" as="targetPoint"/>
                    </mxGeometry>
                </mxCell>
                <mxCell id="lhm_JTMbu5rhK9ElhsDd-23" value="Consultar" style="rhombus;whiteSpace=wrap;html=1;" parent="WIyWlLk6GJQsqaUBKTNV-1" vertex="1">
                    <mxGeometry x="340" y="330" width="80" height="50" as="geometry"/>
                </mxCell>
                <mxCell id="lhm_JTMbu5rhK9ElhsDd-26" value="" style="endArrow=classic;html=1;rounded=0;exitX=0.5;exitY=1;exitDx=0;exitDy=0;entryX=0.5;entryY=0;entryDx=0;entryDy=0;" parent="WIyWlLk6GJQsqaUBKTNV-1" source="WIyWlLk6GJQsqaUBKTNV-11" target="lhm_JTMbu5rhK9ElhsDd-28" edge="1">
                    <mxGeometry width="50" height="50" relative="1" as="geometry">
                        <mxPoint x="50" y="470" as="sourcePoint"/>
                        <mxPoint x="70" y="400" as="targetPoint"/>
                    </mxGeometry>
                </mxCell>
                <mxCell id="lhm_JTMbu5rhK9ElhsDd-27" value="Preço" style="rounded=1;whiteSpace=wrap;html=1;" parent="WIyWlLk6GJQsqaUBKTNV-1" vertex="1">
                    <mxGeometry x="145" y="565" width="120" height="40" as="geometry"/>
                </mxCell>
                <mxCell id="lhm_JTMbu5rhK9ElhsDd-28" value="Modifica" style="rhombus;whiteSpace=wrap;html=1;" parent="WIyWlLk6GJQsqaUBKTNV-1" vertex="1">
                    <mxGeometry x="165" y="470" width="80" height="50" as="geometry"/>
                </mxCell>
                <mxCell id="lhm_JTMbu5rhK9ElhsDd-29" value="" style="endArrow=classic;html=1;rounded=0;exitX=0.5;exitY=1;exitDx=0;exitDy=0;entryX=0.5;entryY=0;entryDx=0;entryDy=0;" parent="WIyWlLk6GJQsqaUBKTNV-1" source="lhm_JTMbu5rhK9ElhsDd-28" target="lhm_JTMbu5rhK9ElhsDd-27" edge="1">
                    <mxGeometry width="50" height="50" relative="1" as="geometry">
                        <mxPoint x="170" y="450" as="sourcePoint"/>
                        <mxPoint x="220" y="400" as="targetPoint"/>
                    </mxGeometry>
                </mxCell>
                <mxCell id="lhm_JTMbu5rhK9ElhsDd-36" style="edgeStyle=orthogonalEdgeStyle;rounded=0;orthogonalLoop=1;jettySize=auto;html=1;exitX=0.5;exitY=1;exitDx=0;exitDy=0;entryX=0.5;entryY=0;entryDx=0;entryDy=0;" parent="WIyWlLk6GJQsqaUBKTNV-1" source="lhm_JTMbu5rhK9ElhsDd-35" edge="1" target="lhm_JTMbu5rhK9ElhsDd-37">
                    <mxGeometry relative="1" as="geometry">
                        <mxPoint x="290" y="350" as="targetPoint"/>
                    </mxGeometry>
                </mxCell>
                <mxCell id="lhm_JTMbu5rhK9ElhsDd-35" value="Consultar" style="rhombus;whiteSpace=wrap;html=1;" parent="WIyWlLk6GJQsqaUBKTNV-1" vertex="1">
                    <mxGeometry x="470" y="300" width="80" height="50" as="geometry"/>
                </mxCell>
                <mxCell id="lhm_JTMbu5rhK9ElhsDd-38" style="edgeStyle=orthogonalEdgeStyle;rounded=0;orthogonalLoop=1;jettySize=auto;html=1;exitX=0.5;exitY=1;exitDx=0;exitDy=0;entryX=0.5;entryY=0;entryDx=0;entryDy=0;" parent="WIyWlLk6GJQsqaUBKTNV-1" source="lhm_JTMbu5rhK9ElhsDd-37" edge="1" target="lhm_JTMbu5rhK9ElhsDd-39">
                    <mxGeometry relative="1" as="geometry">
                        <mxPoint x="300" y="440" as="targetPoint"/>
                    </mxGeometry>
                </mxCell>
                <mxCell id="lhm_JTMbu5rhK9ElhsDd-37" value="Codigo do produto" style="rounded=1;whiteSpace=wrap;html=1;" parent="WIyWlLk6GJQsqaUBKTNV-1" vertex="1">
                    <mxGeometry x="450" y="380" width="120" height="60" as="geometry"/>
                </mxCell>
                <mxCell id="lhm_JTMbu5rhK9ElhsDd-40" style="edgeStyle=orthogonalEdgeStyle;rounded=0;orthogonalLoop=1;jettySize=auto;html=1;exitX=0.5;exitY=1;exitDx=0;exitDy=0;entryX=0.5;entryY=0;entryDx=0;entryDy=0;" parent="WIyWlLk6GJQsqaUBKTNV-1" source="lhm_JTMbu5rhK9ElhsDd-39" edge="1" target="lhm_JTMbu5rhK9ElhsDd-41">
                    <mxGeometry relative="1" as="geometry">
                        <mxPoint x="300" y="510" as="targetPoint"/>
                    </mxGeometry>
                </mxCell>
                <mxCell id="lhm_JTMbu5rhK9ElhsDd-39" value="Mostrar" style="rhombus;whiteSpace=wrap;html=1;" parent="WIyWlLk6GJQsqaUBKTNV-1" vertex="1">
                    <mxGeometry x="470" y="510" width="80" height="50" as="geometry"/>
                </mxCell>
                <mxCell id="lhm_JTMbu5rhK9ElhsDd-41" value="Produtos c/ codigo" style="rounded=1;whiteSpace=wrap;html=1;" parent="WIyWlLk6GJQsqaUBKTNV-1" vertex="1">
                    <mxGeometry x="450" y="630" width="120" height="40" as="geometry"/>
                </mxCell>
                <mxCell id="lhm_JTMbu5rhK9ElhsDd-42" value="&lt;b&gt;&lt;font style=&quot;font-size: 14px;&quot;&gt;DIAGRAMA OnDisc&lt;/font&gt;&lt;/b&gt;" style="text;html=1;align=center;verticalAlign=middle;resizable=0;points=[];autosize=1;strokeColor=none;fillColor=none;" parent="WIyWlLk6GJQsqaUBKTNV-1" vertex="1">
                    <mxGeometry x="770" y="10" width="150" height="30" as="geometry"/>
                </mxCell>
                <mxCell id="1" style="edgeStyle=orthogonalEdgeStyle;rounded=0;orthogonalLoop=1;jettySize=auto;html=1;exitX=0.5;exitY=1;exitDx=0;exitDy=0;entryX=0.5;entryY=0;entryDx=0;entryDy=0;" edge="1" parent="WIyWlLk6GJQsqaUBKTNV-1" source="lhm_JTMbu5rhK9ElhsDd-10" target="2">
                    <mxGeometry relative="1" as="geometry">
                        <mxPoint x="495" y="370" as="targetPoint"/>
                        <mxPoint x="494.57" y="310" as="sourcePoint"/>
                    </mxGeometry>
                </mxCell>
                <mxCell id="2" value="Process CSV&lt;br&gt;+ parseCSV ()&lt;br&gt;+ getColumns()" style="rounded=1;whiteSpace=wrap;html=1;" vertex="1" parent="WIyWlLk6GJQsqaUBKTNV-1">
                    <mxGeometry x="775" y="400" width="130" height="70" as="geometry"/>
                </mxCell>
                <mxCell id="3" style="edgeStyle=orthogonalEdgeStyle;rounded=0;orthogonalLoop=1;jettySize=auto;html=1;exitX=0.5;exitY=1;exitDx=0;exitDy=0;entryX=0.5;entryY=0;entryDx=0;entryDy=0;" edge="1" parent="WIyWlLk6GJQsqaUBKTNV-1" source="2" target="4">
                    <mxGeometry relative="1" as="geometry">
                        <mxPoint x="495" y="480" as="targetPoint"/>
                        <mxPoint x="494.57" y="440" as="sourcePoint"/>
                    </mxGeometry>
                </mxCell>
                <mxCell id="4" value="MapColumns&lt;br&gt;+ mapDBtoCSV ()&lt;br&gt;+ validateMap()" style="rounded=1;whiteSpace=wrap;html=1;" vertex="1" parent="WIyWlLk6GJQsqaUBKTNV-1">
                    <mxGeometry x="775" y="520" width="130" height="70" as="geometry"/>
                </mxCell>
                <mxCell id="5" style="edgeStyle=orthogonalEdgeStyle;rounded=0;orthogonalLoop=1;jettySize=auto;html=1;exitX=0.5;exitY=1;exitDx=0;exitDy=0;entryX=0.5;entryY=0;entryDx=0;entryDy=0;" edge="1" parent="WIyWlLk6GJQsqaUBKTNV-1" source="4" target="6">
                    <mxGeometry relative="1" as="geometry">
                        <mxPoint x="494.57" y="600" as="targetPoint"/>
                        <mxPoint x="494.57" y="560" as="sourcePoint"/>
                    </mxGeometry>
                </mxCell>
                <mxCell id="6" value="SaveMappedData&lt;br&gt;+ insertData ()&lt;br&gt;+ logResult()" style="rounded=1;whiteSpace=wrap;html=1;" vertex="1" parent="WIyWlLk6GJQsqaUBKTNV-1">
                    <mxGeometry x="775" y="640" width="130" height="70" as="geometry"/>
                </mxCell>
                <mxCell id="8" value="BancoDeDados&lt;br&gt;+ executeQuery ()&lt;br&gt;+ connect ()" style="rounded=1;whiteSpace=wrap;html=1;" vertex="1" parent="WIyWlLk6GJQsqaUBKTNV-1">
                    <mxGeometry x="775" y="770" width="130" height="70" as="geometry"/>
                </mxCell>
                <mxCell id="9" value="1 - UploadCSV&lt;br&gt;uploadFile (): Faz o upload do arquivo CSV-&lt;br&gt;displayColumns(): Exibi as colunas do CSV e do banco de dados para mapeamento&lt;br&gt;2 - ProcessCSV&lt;br&gt;parseCSV(): Lê o arquivo CSV e extrai as colunas&lt;br&gt;getColumns(): Retorna as colunas do CSV&lt;br&gt;3 - MapColumns&lt;br&gt;mapDBtoCSV (): Associa colunas do CSV ás colunas do banco.&lt;br&gt;validateMap(): Valida o mapeamento feito pelo usuario.&lt;br&gt;4- SaveMapped Data&lt;br&gt;insertData (): insere os dados mapeados na tabela do banco.&lt;br&gt;logResult(): Armazena logs do processo de inserção.&lt;br&gt;5 - Banco de Dados&lt;br&gt;executeQuery(): Executa queries no banco de dados.&lt;br&gt;connect(): Gerencia a conexao com o banco de dados.&lt;br&gt;" style="text;html=1;align=center;verticalAlign=middle;resizable=0;points=[];autosize=1;strokeColor=none;fillColor=none;" vertex="1" parent="WIyWlLk6GJQsqaUBKTNV-1">
                    <mxGeometry x="640" y="900" width="470" height="230" as="geometry"/>
                </mxCell>
                <mxCell id="13" style="edgeStyle=orthogonalEdgeStyle;rounded=0;orthogonalLoop=1;jettySize=auto;html=1;exitX=0.5;exitY=1;exitDx=0;exitDy=0;entryX=0.5;entryY=0;entryDx=0;entryDy=0;" edge="1" parent="WIyWlLk6GJQsqaUBKTNV-1" source="6" target="8">
                    <mxGeometry relative="1" as="geometry">
                        <mxPoint x="844" y="770" as="targetPoint"/>
                        <mxPoint x="844.29" y="720" as="sourcePoint"/>
                    </mxGeometry>
                </mxCell>
            </root>
        </mxGraphModel>
    </diagram>
</mxfile>